<svg id="visual" viewBox="0 0 900 450" xmlns="http://www.w3.org/2000/svg" xmlns:xlink="http://www.w3.org/1999/xlink" version="1.1"><path d="M0 46L21.5 54.8C43 63.7 86 81.3 128.8 90C171.7 98.7 214.3 98.3 257.2 92.7C300 87 343 76 385.8 67.2C428.7 58.3 471.3 51.7 514.2 49.7C557 47.7 600 50.3 642.8 52.7C685.7 55 728.3 57 771.2 54.5C814 52 857 45 878.5 41.5L900 38L900 0L878.5 0C857 0 814 0 771.2 0C728.3 0 685.7 0 642.8 0C600 0 557 0 514.2 0C471.3 0 428.7 0 385.8 0C343 0 300 0 257.2 0C214.3 0 171.7 0 128.8 0C86 0 43 0 21.5 0L0 0Z" fill="#ffb147"></path><path d="M0 67L21.5 62.2C43 57.3 86 47.7 128.8 51.3C171.7 55 214.3 72 257.2 78C300 84 343 79 385.8 76.8C428.7 74.7 471.3 75.3 514.2 72.3C557 69.3 600 62.7 642.8 62.7C685.7 62.7 728.3 69.3 771.2 73C814 76.7 857 77.3 878.5 77.7L900 78L900 0L878.5 0C857 0 814 0 771.2 0C728.3 0 685.7 0 642.8 0C600 0 557 0 514.2 0C471.3 0 428.7 0 385.8 0C343 0 300 0 257.2 0C214.3 0 171.7 0 128.8 0C86 0 43 0 21.5 0L0 0Z" fill="#ffa24f"></path><path d="M0 83L21.5 80.5C43 78 86 73 128.8 66.3C171.7 59.7 214.3 51.3 257.2 48.2C300 45 343 47 385.8 49.8C428.7 52.7 471.3 56.3 514.2 57.3C557 58.3 600 56.7 642.8 51.8C685.7 47 728.3 39 771.2 36.2C814 33.3 857 35.7 878.5 36.8L900 38L900 0L878.5 0C857 0 814 0 771.2 0C728.3 0 685.7 0 642.8 0C600 0 557 0 514.2 0C471.3 0 428.7 0 385.8 0C343 0 300 0 257.2 0C214.3 0 171.7 0 128.8 0C86 0 43 0 21.5 0L0 0Z" fill="#ff935a"></path><path d="M0 66L21.5 61.7C43 57.3 86 48.7 128.8 49.7C171.7 50.7 214.3 61.3 257.2 63.7C300 66 343 60 385.8 54.3C428.7 48.7 471.3 43.3 514.2 46.3C557 49.3 600 60.7 642.8 63.2C685.7 65.7 728.3 59.3 771.2 58C814 56.7 857 60.3 878.5 62.2L900 64L900 0L878.5 0C857 0 814 0 771.2 0C728.3 0 685.7 0 642.8 0C600 0 557 0 514.2 0C471.3 0 428.7 0 385.8 0C343 0 300 0 257.2 0C214.3 0 171.7 0 128.8 0C86 0 43 0 21.5 0L0 0Z" fill="#ff8667"></path><path d="M0 54L21.5 52.3C43 50.7 86 47.3 128.8 42.7C171.7 38 214.3 32 257.2 35.7C300 39.3 343 52.7 385.8 53.7C428.7 54.7 471.3 43.3 514.2 37.7C557 32 600 32 642.8 34.3C685.7 36.7 728.3 41.3 771.2 43C814 44.7 857 43.3 878.5 42.7L900 42L900 0L878.5 0C857 0 814 0 771.2 0C728.3 0 685.7 0 642.8 0C600 0 557 0 514.2 0C471.3 0 428.7 0 385.8 0C343 0 300 0 257.2 0C214.3 0 171.7 0 128.8 0C86 0 43 0 21.5 0L0 0Z" fill="#ff7974"></path><path d="M0 41L21.5 38.5C43 36 86 31 128.8 32.5C171.7 34 214.3 42 257.2 43.7C300 45.3 343 40.7 385.8 40.8C428.7 41 471.3 46 514.2 47.5C557 49 600 47 642.8 44.2C685.7 41.3 728.3 37.7 771.2 37.2C814 36.7 857 39.3 878.5 40.7L900 42L900 0L878.5 0C857 0 814 0 771.2 0C728.3 0 685.7 0 642.8 0C600 0 557 0 514.2 0C471.3 0 428.7 0 385.8 0C343 0 300 0 257.2 0C214.3 0 171.7 0 128.8 0C86 0 43 0 21.5 0L0 0Z" fill="#ff6f82"></path><path d="M0 53L21.5 51C43 49 86 45 128.8 42C171.7 39 214.3 37 257.2 38.8C300 40.7 343 46.3 385.8 48.8C428.7 51.3 471.3 50.7 514.2 47.7C557 44.7 600 39.3 642.8 38.3C685.7 37.3 728.3 40.7 771.2 38.3C814 36 857 28 878.5 24L900 20L900 0L878.5 0C857 0 814 0 771.2 0C728.3 0 685.7 0 642.8 0C600 0 557 0 514.2 0C471.3 0 428.7 0 385.8 0C343 0 300 0 257.2 0C214.3 0 171.7 0 128.8 0C86 0 43 0 21.5 0L0 0Z" fill="#fe6890"></path><path d="M0 35L21.5 32.3C43 29.7 86 24.3 128.8 24.7C171.7 25 214.3 31 257.2 33.5C300 36 343 35 385.8 34.8C428.7 34.7 471.3 35.3 514.2 36.5C557 37.7 600 39.3 642.8 36.7C685.7 34 728.3 27 771.2 27.5C814 28 857 36 878.5 40L900 44L900 0L878.5 0C857 0 814 0 771.2 0C728.3 0 685.7 0 642.8 0C600 0 557 0 514.2 0C471.3 0 428.7 0 385.8 0C343 0 300 0 257.2 0C214.3 0 171.7 0 128.8 0C86 0 43 0 21.5 0L0 0Z" fill="#f863a0"></path><path d="M0 14L21.5 17.8C43 21.7 86 29.3 128.8 32.2C171.7 35 214.3 33 257.2 29.2C300 25.3 343 19.7 385.8 19.5C428.7 19.3 471.3 24.7 514.2 24.7C557 24.7 600 19.3 642.8 17.3C685.7 15.3 728.3 16.7 771.2 19.2C814 21.7 857 25.3 878.5 27.2L900 29L900 0L878.5 0C857 0 814 0 771.2 0C728.3 0 685.7 0 642.8 0C600 0 557 0 514.2 0C471.3 0 428.7 0 385.8 0C343 0 300 0 257.2 0C214.3 0 171.7 0 128.8 0C86 0 43 0 21.5 0L0 0Z" fill="#ef60b0"></path><path d="M0 10L21.5 10C43 10 86 10 128.8 11C171.7 12 214.3 14 257.2 15.3C300 16.7 343 17.3 385.8 19.5C428.7 21.7 471.3 25.3 514.2 25.3C557 25.3 600 21.7 642.8 20.2C685.7 18.7 728.3 19.3 771.2 19.8C814 20.3 857 20.7 878.5 20.8L900 21L900 0L878.5 0C857 0 814 0 771.2 0C728.3 0 685.7 0 642.8 0C600 0 557 0 514.2 0C471.3 0 428.7 0 385.8 0C343 0 300 0 257.2 0C214.3 0 171.7 0 128.8 0C86 0 43 0 21.5 0L0 0Z" fill="#e261c0"></path><path d="M0 7L21.5 7.7C43 8.3 86 9.7 128.8 10C171.7 10.3 214.3 9.7 257.2 10.8C300 12 343 15 385.8 16.3C428.7 17.7 471.3 17.3 514.2 16C557 14.7 600 12.3 642.8 13C685.7 13.7 728.3 17.3 771.2 16.8C814 16.3 857 11.7 878.5 9.3L900 7L900 0L878.5 0C857 0 814 0 771.2 0C728.3 0 685.7 0 642.8 0C600 0 557 0 514.2 0C471.3 0 428.7 0 385.8 0C343 0 300 0 257.2 0C214.3 0 171.7 0 128.8 0C86 0 43 0 21.5 0L0 0Z" fill="#cf65d082"></path><path d="M0 8L21.5 8.3C43 8.7 86 9.3 128.8 10.3C171.7 11.3 214.3 12.7 257.2 11.8C300 11 343 8 385.8 7.7C428.7 7.3 471.3 9.7 514.2 10.3C557 11 600 10 642.8 8.8C685.7 7.7 728.3 6.3 771.2 6.3C814 6.3 857 7.7 878.5 8.3L900 9L900 0L878.5 0C857 0 814 0 771.2 0C728.3 0 685.7 0 642.8 0C600 0 557 0 514.2 0C471.3 0 428.7 0 385.8 0C343 0 300 0 257.2 0C214.3 0 171.7 0 128.8 0C86 0 43 0 21.5 0L0 0Z" fill="#b86adf82"></path></svg>