<svg width="660" height="643" viewBox="0 0 660 643" fill="none" xmlns="http://www.w3.org/2000/svg">
<path d="M617.949 389.687L268.738 567.396C420.086 600.666 574.964 521.851 617.949 389.687Z" fill="url(#paint0_linear_334_310)"/>
<path d="M414.615 74.3806C260.742 38.0135 102.712 118.433 61.5073 254.073C58.5894 263.679 56.2109 273.256 54.7022 282.882L446.323 83.5905C436.231 80.1135 425.512 76.956 414.615 74.3806Z" fill="url(#paint1_linear_334_310)"/>
<path d="M516.338 47.9607L124.544 247.34C114.663 305.61 128.371 363.214 160.097 411.649L660 157.253C628.274 108.819 578.53 69.5531 516.338 47.9607Z" fill="url(#paint2_linear_334_310)"/>
<path d="M540.12 218.26L40.2168 472.655C77.1998 529.116 138.608 573.394 215.678 591.684C217.001 591.998 218.324 592.312 219.526 592.441L568.159 415.025C568.512 413.858 568.865 412.691 569.339 411.709C589.694 343.841 577.103 274.721 540.12 218.26Z" fill="url(#paint3_linear_334_310)"/>
<rect x="534.253" y="539.51" width="3.05551" height="3.05551" fill="#141313"/>
<rect x="519.299" y="539.51" width="3.05551" height="3.05551" fill="#141313"/>
<rect x="504" y="539.51" width="3.05551" height="3.05551" fill="#141313"/>
<rect x="551.567" y="539" width="3.05551" height="3.05551" transform="rotate(30 551.567 539)" fill="#141313"/>
<rect x="568.473" y="539" width="3.05551" height="3.05551" transform="rotate(60 568.473 539)" fill="#141313"/>
<rect x="534.253" y="553.683" width="3.05551" height="3.05551" fill="#141313"/>
<rect x="519.299" y="553.683" width="3.05551" height="3.05551" fill="#141313"/>
<rect x="504" y="553.683" width="3.05551" height="3.05551" fill="#141313"/>
<rect x="551.567" y="553.174" width="3.05551" height="3.05551" transform="rotate(30 551.567 553.174)" fill="#141313"/>
<rect x="568.473" y="553.174" width="3.05551" height="3.05551" transform="rotate(60 568.473 553.174)" fill="#141313"/>
<rect x="534.253" y="567.857" width="3.05551" height="3.05551" fill="#141313"/>
<rect x="519.299" y="567.857" width="3.05551" height="3.05551" fill="#141313"/>
<rect x="504" y="567.857" width="3.05551" height="3.05551" fill="#141313"/>
<rect x="551.518" y="567.348" width="3.05551" height="3.05551" transform="rotate(30 551.518 567.348)" fill="#141313"/>
<rect x="568.473" y="567.348" width="3.05551" height="3.05551" transform="rotate(60 568.473 567.348)" fill="#141313"/>
<rect x="534.253" y="582.031" width="3.05551" height="3.05551" fill="#141313"/>
<rect x="519.299" y="582.031" width="3.05551" height="3.05551" fill="#141313"/>
<rect x="504" y="582.031" width="3.05551" height="3.05551" fill="#141313"/>
<rect x="551.567" y="581.521" width="3.05551" height="3.05551" transform="rotate(30 551.567 581.521)" fill="#141313"/>
<rect x="568.473" y="581.521" width="3.05551" height="3.05551" transform="rotate(60 568.473 581.521)" fill="#141313"/>
<rect x="534.253" y="596.205" width="3.05551" height="3.05551" fill="#141313"/>
<rect x="519.299" y="596.205" width="3.05551" height="3.05551" fill="#141313"/>
<rect x="504" y="596.205" width="3.05551" height="3.05551" fill="#141313"/>
<rect x="551.567" y="595.696" width="3.05551" height="3.05551" transform="rotate(30 551.567 595.696)" fill="#141313"/>
<rect x="568.473" y="595.696" width="3.05551" height="3.05551" transform="rotate(60 568.473 595.696)" fill="#141313"/>
<rect x="534.253" y="610.379" width="3.05551" height="3.05551" fill="#141313"/>
<rect x="519.299" y="610.379" width="3.05551" height="3.05551" fill="#141313"/>
<rect x="504" y="610.379" width="3.05551" height="3.05551" fill="#141313"/>
<rect x="551.518" y="609.87" width="3.05551" height="3.05551" transform="rotate(30 551.518 609.87)" fill="#141313"/>
<rect x="568.473" y="609.87" width="3.05551" height="3.05551" transform="rotate(60 568.473 609.87)" fill="#141313"/>
<rect x="534.253" y="624.553" width="3.05551" height="3.05551" fill="#141313"/>
<rect x="519.299" y="624.553" width="3.05551" height="3.05551" fill="#141313"/>
<rect x="504" y="624.553" width="3.05551" height="3.05551" fill="#141313"/>
<rect x="551.567" y="624.044" width="3.05551" height="3.05551" transform="rotate(30 551.567 624.044)" fill="#141313"/>
<rect x="568.473" y="624.044" width="3.05551" height="3.05551" transform="rotate(60 568.473 624.044)" fill="#141313"/>
<rect x="534.253" y="638.726" width="3.05551" height="3.05551" fill="#141313"/>
<rect x="519.299" y="638.726" width="3.05551" height="3.05551" fill="#141313"/>
<rect x="504" y="638.726" width="3.05551" height="3.05551" fill="#141313"/>
<rect x="551.567" y="638.217" width="3.05551" height="3.05551" transform="rotate(30 551.567 638.217)" fill="#141313"/>
<rect x="568.473" y="638.217" width="3.05551" height="3.05551" transform="rotate(60 568.473 638.217)" fill="#141313"/>
<g clip-path="url(#clip0_334_310)">
<path d="M505.964 39.2606L504.33 34.4405C503.428 31.7784 501.327 29.6089 498.561 28.6713L493.741 27.0374C492.753 26.7026 492.753 25.3002 493.741 24.9654L498.561 23.3315C501.223 22.4291 503.392 20.3284 504.33 17.5623L505.964 12.7422C506.299 11.7544 507.701 11.7547 508.036 12.7422L509.67 17.5623C510.572 20.2243 512.673 22.3938 515.439 23.3315L520.259 24.9654C521.247 25.3003 521.247 26.7026 520.259 27.0374L515.439 28.6713C512.777 29.5736 510.608 31.6744 509.67 34.4405L508.036 39.2606C507.701 40.2484 506.299 40.2481 505.964 39.2606ZM497.499 26.0014L499.263 26.5993C502.557 27.7159 505.242 30.3152 506.402 33.7381L507 35.502L507.598 33.7381C508.715 30.4441 511.314 27.7596 514.737 26.5993L516.501 26.0014L514.737 25.4034C511.443 24.2868 508.758 21.6874 507.598 18.2645L507 16.5006L506.402 18.2645C505.285 21.5586 502.686 24.2431 499.263 25.4034L497.499 26.0014Z" fill="#141313"/>
</g>
<g clip-path="url(#clip1_334_310)">
<path d="M69.186 478.419L67.9022 474.631C67.1932 472.54 65.5427 470.835 63.3693 470.098L59.582 468.815C58.8059 468.552 58.8061 467.45 59.582 467.187L63.3693 465.903C65.4609 465.194 67.1655 463.543 67.9022 461.37L69.186 457.583C69.4491 456.807 70.551 456.807 70.814 457.583L72.0978 461.37C72.8069 463.462 74.4573 465.166 76.6308 465.903L80.418 467.187C81.1941 467.45 81.1939 468.552 80.418 468.815L76.6308 470.098C74.5392 470.807 72.8346 472.458 72.0978 474.631L70.814 478.419C70.5509 479.195 69.449 479.195 69.186 478.419ZM62.5352 468.001L63.9211 468.47C66.5093 469.348 68.6186 471.39 69.5302 474.08L70 475.465L70.4698 474.08C71.3472 471.491 73.3895 469.382 76.0789 468.47L77.4648 468.001L76.0789 467.531C73.4907 466.653 71.3815 464.611 70.4698 461.922L70 460.536L69.5302 461.922C68.6529 464.51 66.6105 466.619 63.9211 467.531L62.5352 468.001Z" fill="#141313"/>
</g>
<defs>
<linearGradient id="paint0_linear_334_310" x1="626.726" y1="443.427" x2="341.739" y2="624.344" gradientUnits="userSpaceOnUse">
<stop stop-color="#FFB147"/>
<stop offset="0.520264" stop-color="#FF6C63"/>
<stop offset="1" stop-color="#B86ADF"/>
</linearGradient>
<linearGradient id="paint1_linear_334_310" x1="407.89" y1="70.155" x2="88.8497" y2="273.758" gradientUnits="userSpaceOnUse">
<stop stop-color="#FFB147"/>
<stop offset="0.520264" stop-color="#FF6C63"/>
<stop offset="1" stop-color="#B86ADF"/>
</linearGradient>
<linearGradient id="paint2_linear_334_310" x1="529.428" y1="165.114" x2="194.09" y2="384.301" gradientUnits="userSpaceOnUse">
<stop stop-color="#FF6C63"/>
<stop offset="0.520264" stop-color="#FFB147" stop-opacity="0.2"/>
</linearGradient>
<linearGradient id="paint3_linear_334_310" x1="508.384" y1="334.836" x2="134.867" y2="590.432" gradientUnits="userSpaceOnUse">
<stop stop-color="#B238EF"/>
<stop offset="1" stop-color="#FFB147" stop-opacity="0.33"/>
</linearGradient>
<clipPath id="clip0_334_310">
<rect width="28" height="28" fill="white" transform="translate(493 12)"/>
</clipPath>
<clipPath id="clip1_334_310">
<rect width="22" height="22" fill="white" transform="translate(59 457)"/>
</clipPath>
</defs>
</svg>
