<?xml version="1.0" encoding="UTF-8"?>
<svg id="Calque_1" data-name="Calque 1" xmlns="http://www.w3.org/2000/svg" viewBox="0 0 1011.41 844.34">
  <defs>
    <style>
      .cls-1 {
        fill: #242424;
      }

      .cls-2 {
        fill: #09814A;
      }

      .cls-3 {
        fill: #E5C687;
      }
    </style>
  </defs>
  <path class="cls-3" d="m748.5,250.57c-49.7-39.84-102.86-46.51-124-48-38.17-.17-76.33-.33-114.5-.5-30,49.33-60,98.67-90,148-30.33-49.33-60.67-98.67-91-148h-85c44.57,72.43,89.14,144.86,133.71,217.29-44.4,72.4-88.8,144.8-133.21,217.21h84c75.5-122.83,151-245.67,226.5-368.5h6c2.33,0,4.67,0,7,0,1.67,0,3.33,0,5,0h16c40.52.03,66,8,66,8,19.89,6.24,33.38,14.79,37.5,17.5,3.48,2.29,14.81,10,27,23,6.45,6.88,26.42,29.42,36,61,13.08,43.11,4.37,95.07-26,134-30.62,39.25-72.26,50.96-85,54-16.24,3.87-30.27,4.32-40,4-43.17-.17-86.33-.33-129.5-.5,57.67-94,115.33-188,173-282-1.01-.21-2.78-.58-5-1-9.5-1.82-24.52-4.63-43-5t-2.73,0c-2.76,0-5.52,0-8.27,0-1.13,0-18.61,0-22,0-72.17,118.5-144.33,237-216.5,355.5,89.33,0,178.67,0,268,0,3.52-.11,8.73-.35,15-1,57.82-5.95,98.1-34.63,108-42,34.15-25.43,53.23-55.32,63-74,17.99-34.4,22.56-65.42,24-81,4.7-50.97-9.98-89.82-16-104-5.69-13.4-23.5-51.54-64-84Z"/>
  <g>
    <path class="cls-1" d="m349.4,690.77h8.71l5.98,41.76,11.02-18.79-3.46-22.75h7.56l2.16,17.35,9.58-17.35h7.56l-13.1,22.75,2.95,18.79,23.69-41.76h8.86l-30.89,51.12h-6.84l-4.03-22.9-13.82,22.9h-6.84l-9.07-51.12Z"/>
    <path class="cls-1" d="m427.38,742.61c-3.17,0-5.88-.69-8.14-2.07-2.26-1.38-3.97-3.26-5.15-5.64-1.18-2.38-1.76-5.06-1.76-8.06s.58-6,1.73-8.74,2.78-5.17,4.9-7.31c2.11-2.14,4.57-3.82,7.38-5.03,2.81-1.21,5.87-1.82,9.18-1.82,2.59,0,4.86.39,6.8,1.18,1.94.78,3.46,1.92,4.54,3.42,1.08,1.5,1.62,3.39,1.62,5.67,0,3.8-1.74,6.7-5.22,8.7-3.48,2-8.77,2.99-15.88,2.99-1.34,0-2.86-.04-4.54-.11-1.68-.07-3.58-.2-5.69-.4l1.08-5.11c1.92.1,3.62.19,5.11.29,1.49.1,2.88.14,4.18.14,3.41,0,6.1-.26,8.06-.78,1.97-.52,3.38-1.26,4.25-2.22.86-.97,1.3-2.06,1.3-3.28,0-1.08-.26-1.95-.79-2.61-.53-.66-1.27-1.16-2.23-1.52-.96-.35-2.11-.53-3.46-.53-2.11,0-4.06.46-5.83,1.39-1.78.92-3.3,2.2-4.57,3.84-1.27,1.63-2.26,3.47-2.95,5.51-.7,2.04-1.04,4.19-1.04,6.46,0,1.8.3,3.45.9,4.94.6,1.49,1.54,2.68,2.81,3.55,1.27.88,2.87,1.31,4.79,1.31,2.06,0,4.06-.51,5.98-1.55,1.92-1.03,3.43-2.44,4.54-4.21l6.26,1.94c-1.2,1.87-2.76,3.54-4.68,5-1.92,1.46-4.04,2.6-6.37,3.42-2.33.82-4.69,1.22-7.09,1.22Z"/>
    <path class="cls-1" d="m469.71,742.61c-2.88,0-5.26-.69-7.13-2.07-1.87-1.38-3.22-3.19-4.03-5.42l-1.44,6.77h-6.98l11.16-52.56h7.92l-4.61,22.32c1.82-2.33,3.96-4.2,6.41-5.6,2.45-1.4,5.02-2.11,7.7-2.11s5.02.7,6.84,2.11c1.82,1.4,3.2,3.25,4.14,5.53.94,2.28,1.4,4.78,1.4,7.49,0,3.19-.59,6.19-1.76,9.02-1.18,2.83-2.78,5.34-4.82,7.53-2.04,2.19-4.33,3.9-6.88,5.14-2.54,1.24-5.18,1.85-7.92,1.85Zm-.43-6.77c1.73,0,3.4-.41,5-1.24,1.61-.83,3.05-1.96,4.32-3.41,1.27-1.44,2.28-3.08,3.02-4.9.74-1.82,1.12-3.73,1.12-5.71,0-1.75-.31-3.37-.94-4.86-.62-1.49-1.51-2.7-2.66-3.62-1.15-.92-2.59-1.38-4.32-1.38-1.44,0-2.89.37-4.36,1.1-1.46.73-2.82,1.7-4.07,2.9-1.25,1.2-2.35,2.54-3.31,4l-2.16,9.84c.1,1.37.53,2.61,1.3,3.71.77,1.11,1.76,1.98,2.99,2.62s2.58.96,4.07.96Z"/>
    <path class="cls-1" d="m523.06,690.77h17.35c4.37,0,7.96.88,10.77,2.63,2.81,1.75,4.89,4.12,6.26,7.09,1.37,2.98,2.05,6.31,2.05,10.01,0,4.51-.76,8.68-2.27,12.49-1.51,3.82-3.61,7.14-6.3,9.97-2.69,2.83-5.86,5.03-9.51,6.59-3.65,1.56-7.61,2.34-11.88,2.34h-17.35l10.87-51.12Zm7.99,43.99c3.07,0,5.84-.64,8.32-1.91,2.47-1.27,4.58-2.98,6.34-5.11,1.75-2.13,3.1-4.58,4.03-7.34.94-2.76,1.4-5.65,1.4-8.68,0-2.74-.46-5.14-1.37-7.2-.91-2.06-2.28-3.68-4.11-4.86-1.82-1.18-4.08-1.76-6.77-1.76h-9.21l-7.85,36.86h9.22Z"/>
    <path class="cls-1" d="m577.42,742.61c-3.17,0-5.88-.69-8.14-2.07-2.26-1.38-3.97-3.26-5.15-5.64-1.18-2.38-1.76-5.06-1.76-8.06s.58-6,1.73-8.74,2.78-5.17,4.9-7.31c2.11-2.14,4.57-3.82,7.38-5.03,2.81-1.21,5.87-1.82,9.18-1.82,2.59,0,4.86.39,6.8,1.18,1.94.78,3.46,1.92,4.54,3.42,1.08,1.5,1.62,3.39,1.62,5.67,0,3.8-1.74,6.7-5.22,8.7-3.48,2-8.77,2.99-15.88,2.99-1.34,0-2.86-.04-4.54-.11-1.68-.07-3.58-.2-5.69-.4l1.08-5.11c1.92.1,3.62.19,5.11.29,1.49.1,2.88.14,4.18.14,3.41,0,6.1-.26,8.06-.78,1.97-.52,3.38-1.26,4.25-2.22.86-.97,1.3-2.06,1.3-3.28,0-1.08-.26-1.95-.79-2.61-.53-.66-1.27-1.16-2.23-1.52-.96-.35-2.11-.53-3.46-.53-2.11,0-4.06.46-5.83,1.39-1.78.92-3.3,2.2-4.57,3.84-1.27,1.63-2.26,3.47-2.95,5.51-.7,2.04-1.04,4.19-1.04,6.46,0,1.8.3,3.45.9,4.94.6,1.49,1.54,2.68,2.81,3.55,1.27.88,2.87,1.31,4.79,1.31,2.06,0,4.06-.51,5.98-1.55,1.92-1.03,3.43-2.44,4.54-4.21l6.26,1.94c-1.2,1.87-2.76,3.54-4.68,5-1.92,1.46-4.04,2.6-6.37,3.42-2.33.82-4.69,1.22-7.09,1.22Z"/>
    <path class="cls-1" d="m603.2,704.52h8.21l3.31,30.72c1.82-2.67,3.52-5.26,5.08-7.79,1.56-2.52,2.98-5.04,4.25-7.54,1.27-2.5,2.42-5.04,3.46-7.61,1.03-2.57,1.91-5.17,2.63-7.79h7.42c-1.73,6.19-4.34,12.41-7.85,18.65-3.5,6.24-7.68,12.48-12.53,18.72h-8.42l-5.54-37.37Z"/>
    <path class="cls-1" d="m652.38,742.61c-3.17,0-5.88-.69-8.14-2.07-2.26-1.38-3.97-3.26-5.15-5.64-1.18-2.38-1.76-5.06-1.76-8.06s.58-6,1.73-8.74,2.78-5.17,4.9-7.31c2.11-2.14,4.57-3.82,7.38-5.03,2.81-1.21,5.87-1.82,9.18-1.82,2.59,0,4.86.39,6.8,1.18,1.94.78,3.46,1.92,4.54,3.42,1.08,1.5,1.62,3.39,1.62,5.67,0,3.8-1.74,6.7-5.22,8.7-3.48,2-8.77,2.99-15.88,2.99-1.34,0-2.86-.04-4.54-.11-1.68-.07-3.58-.2-5.69-.4l1.08-5.11c1.92.1,3.62.19,5.11.29,1.49.1,2.88.14,4.18.14,3.41,0,6.1-.26,8.06-.78,1.97-.52,3.38-1.26,4.25-2.22.86-.97,1.3-2.06,1.3-3.28,0-1.08-.26-1.95-.79-2.61-.53-.66-1.27-1.16-2.23-1.52-.96-.35-2.11-.53-3.46-.53-2.11,0-4.06.46-5.83,1.39-1.78.92-3.3,2.2-4.57,3.84-1.27,1.63-2.26,3.47-2.95,5.51-.7,2.04-1.04,4.19-1.04,6.46,0,1.8.3,3.45.9,4.94.6,1.49,1.54,2.68,2.81,3.55,1.27.88,2.87,1.31,4.79,1.31,2.06,0,4.06-.51,5.98-1.55,1.92-1.03,3.43-2.44,4.54-4.21l6.26,1.94c-1.2,1.87-2.76,3.54-4.68,5-1.92,1.46-4.04,2.6-6.37,3.42-2.33.82-4.69,1.22-7.09,1.22Z"/>
    <path class="cls-1" d="m683.48,742.61c-2.16,0-3.84-.53-5.04-1.59s-1.8-2.58-1.8-4.55c0-.38.02-.79.07-1.23.05-.43.12-.84.22-1.23l9.43-44.69h7.85l-8.78,41.82c-.05.24-.1.48-.14.72-.05.24-.07.48-.07.72,0,2.02,1.03,3.03,3.1,3.03.53,0,1.16-.1,1.91-.29.74-.19,1.43-.41,2.05-.65l-.29,6.19c-1.2.48-2.6.89-4.21,1.22-1.61.33-3.04.5-4.28.5Z"/>
    <path class="cls-1" d="m712.64,742.61c-3.46,0-6.32-.71-8.6-2.14-2.28-1.43-3.96-3.34-5.04-5.74-1.08-2.4-1.62-5.03-1.62-7.88,0-3.09.56-6.02,1.69-8.77,1.13-2.76,2.72-5.21,4.79-7.35,2.06-2.14,4.46-3.8,7.2-4.99,2.74-1.19,5.69-1.78,8.86-1.78,3.5,0,6.4.71,8.68,2.14,2.28,1.43,3.97,3.33,5.08,5.71,1.1,2.38,1.66,5.02,1.66,7.92,0,3.09-.56,6.02-1.69,8.77-1.13,2.76-2.72,5.2-4.79,7.31-2.06,2.12-4.48,3.78-7.24,4.99-2.76,1.21-5.75,1.82-8.96,1.82Zm1.3-6.77c1.68,0,3.31-.37,4.9-1.1s2.99-1.79,4.21-3.16c1.22-1.37,2.2-2.97,2.92-4.79.72-1.82,1.08-3.82,1.08-6,0-1.99-.31-3.73-.94-5.22-.62-1.49-1.56-2.67-2.81-3.55-1.25-.88-2.78-1.31-4.61-1.31-1.68,0-3.3.38-4.86,1.14-1.56.76-2.96,1.82-4.21,3.19-1.25,1.37-2.23,2.98-2.95,4.83-.72,1.84-1.08,3.83-1.08,5.96,0,1.94.31,3.67.94,5.18.62,1.51,1.57,2.7,2.84,3.55,1.27.85,2.79,1.28,4.57,1.28Z"/>
    <path class="cls-1" d="m745.9,704.52h6.98l-1.44,6.77c1.87-2.23,4.04-4.02,6.52-5.35,2.47-1.33,5.05-2,7.74-2s5.09.7,7.06,2.11c1.97,1.4,3.48,3.27,4.54,5.6,1.06,2.33,1.58,4.92,1.58,7.78,0,3-.55,5.89-1.66,8.67s-2.6,5.27-4.5,7.45c-1.9,2.19-4.08,3.91-6.55,5.17-2.47,1.26-5.08,1.89-7.81,1.89s-5.18-.71-7.06-2.14-3.19-3.28-3.96-5.56l-4.75,22.32h-7.92l11.23-52.7Zm11.3,31.32c1.82,0,3.54-.44,5.15-1.31,1.61-.88,3.02-2.04,4.25-3.48,1.22-1.44,2.2-3.07,2.92-4.9.72-1.82,1.08-3.66,1.08-5.5s-.35-3.51-1.04-5c-.7-1.49-1.68-2.68-2.95-3.58-1.27-.9-2.77-1.35-4.5-1.35-.96,0-1.98.19-3.06.57-1.08.38-2.15.9-3.2,1.56-1.06.66-2,1.44-2.84,2.33-.84.9-1.5,1.84-1.98,2.83l-2.16,9.77c.33,1.51.88,2.87,1.62,4.07.74,1.2,1.7,2.17,2.88,2.9,1.17.73,2.46,1.1,3.85,1.1Z"/>
    <path class="cls-1" d="m798.03,742.61c-3.17,0-5.88-.69-8.14-2.07-2.26-1.38-3.97-3.26-5.15-5.64-1.18-2.38-1.76-5.06-1.76-8.06s.58-6,1.73-8.74,2.78-5.17,4.9-7.31c2.11-2.14,4.57-3.82,7.38-5.03,2.81-1.21,5.87-1.82,9.18-1.82,2.59,0,4.86.39,6.8,1.18,1.94.78,3.46,1.92,4.54,3.42,1.08,1.5,1.62,3.39,1.62,5.67,0,3.8-1.74,6.7-5.22,8.7-3.48,2-8.77,2.99-15.88,2.99-1.34,0-2.86-.04-4.54-.11-1.68-.07-3.58-.2-5.69-.4l1.08-5.11c1.92.1,3.62.19,5.11.29,1.49.1,2.88.14,4.18.14,3.41,0,6.1-.26,8.06-.78,1.97-.52,3.38-1.26,4.25-2.22.86-.97,1.3-2.06,1.3-3.28,0-1.08-.26-1.95-.79-2.61-.53-.66-1.27-1.16-2.23-1.52-.96-.35-2.11-.53-3.46-.53-2.11,0-4.06.46-5.83,1.39-1.78.92-3.3,2.2-4.57,3.84-1.27,1.63-2.26,3.47-2.95,5.51-.7,2.04-1.04,4.19-1.04,6.46,0,1.8.3,3.45.9,4.94.6,1.49,1.54,2.68,2.81,3.55,1.27.88,2.87,1.31,4.79,1.31,2.06,0,4.06-.51,5.98-1.55,1.92-1.03,3.43-2.44,4.54-4.21l6.26,1.94c-1.2,1.87-2.76,3.54-4.68,5-1.92,1.46-4.04,2.6-6.37,3.42-2.33.82-4.69,1.22-7.09,1.22Z"/>
    <path class="cls-1" d="m828.85,704.52h7.34l-1.87,8.36c1.82-2.57,3.89-4.64,6.19-6.22,2.3-1.57,4.58-2.36,6.84-2.36.48,0,.86.01,1.15.04.29.02.53.06.72.11l-1.51,6.91c-2.83.05-5.52.73-8.06,2.06-2.54,1.33-4.56,3.19-6.05,5.61l-4.9,22.86h-7.92l8.06-37.37Z"/>
    <path class="cls-1" d="m436.09,828.65c-2.74,0-5.22-.56-7.45-1.69-2.23-1.13-4.13-2.66-5.69-4.61-1.56-1.94-2.77-4.2-3.64-6.77-.86-2.57-1.3-5.29-1.3-8.17,0-3.98.82-7.81,2.45-11.48,1.63-3.67,3.83-6.95,6.59-9.83,2.76-2.88,5.89-5.15,9.4-6.8,3.5-1.66,7.15-2.48,10.94-2.48,4.61,0,8.28,1.02,11.02,3.06,2.74,2.04,4.58,4.74,5.54,8.1l-7.06,4.46c-.72-2.78-2.09-4.87-4.1-6.26-2.02-1.39-4.42-2.09-7.2-2.09-2.59,0-5.05.64-7.38,1.91-2.33,1.27-4.38,2.99-6.16,5.15-1.78,2.16-3.18,4.6-4.21,7.31-1.03,2.71-1.55,5.48-1.55,8.32s.48,5.21,1.44,7.42c.96,2.21,2.34,3.96,4.14,5.26,1.8,1.3,3.92,1.94,6.37,1.94,2.59,0,5.21-.71,7.85-2.12,2.64-1.42,5.3-3.54,7.99-6.37l-1.66,8.21c-2.69,2.54-5.38,4.44-8.06,5.69-2.69,1.25-5.45,1.87-8.28,1.87Zm18.29-20.23h-10.08l1.3-5.98h16.78l-5.47,25.85h-6.77l4.25-19.87Z"/>
    <path class="cls-1" d="m472.88,790.92h7.34l-1.87,8.36c1.82-2.57,3.89-4.64,6.19-6.22,2.3-1.57,4.58-2.36,6.84-2.36.48,0,.86.01,1.15.04.29.02.53.06.72.11l-1.51,6.91c-2.83.05-5.52.73-8.06,2.06-2.54,1.33-4.56,3.19-6.05,5.61l-4.9,22.86h-7.92l8.06-37.37Z"/>
    <path class="cls-1" d="m505.5,829.01c-2.78,0-5.18-.69-7.2-2.07-2.02-1.38-3.55-3.23-4.61-5.56-1.06-2.33-1.58-4.92-1.58-7.78,0-3.04.55-5.96,1.66-8.74,1.1-2.78,2.63-5.25,4.57-7.42,1.94-2.16,4.16-3.89,6.66-5.17,2.5-1.28,5.11-1.93,7.85-1.93s5.04.74,6.91,2.21,3.17,3.31,3.89,5.49l1.51-7.13h7.99l-6.05,27.7c-.05.24-.08.44-.11.6-.02.17-.04.32-.04.46,0,.94.55,1.44,1.66,1.48l-1.44,6.77c-.67.1-1.27.18-1.8.25-.53.07-1.01.11-1.44.11-1.49,0-2.64-.3-3.46-.91-.82-.61-1.22-1.48-1.22-2.61,0-.22.01-.5.04-.81.02-.32.07-.68.14-1.08.07-.41.18-.86.32-1.35-1.87,2.38-4.09,4.22-6.66,5.53-2.57,1.31-5.1,1.96-7.6,1.96Zm3.46-6.77c.96,0,1.98-.19,3.06-.57,1.08-.38,2.14-.9,3.17-1.56,1.03-.66,1.98-1.44,2.84-2.33s1.56-1.86,2.09-2.9l2.02-9.77c-.19-1.51-.7-2.87-1.51-4.07-.82-1.2-1.81-2.16-2.99-2.87-1.18-.71-2.44-1.06-3.78-1.06-1.82,0-3.54.44-5.15,1.31-1.61.88-3.02,2.05-4.25,3.51-1.22,1.47-2.2,3.1-2.92,4.9-.72,1.8-1.08,3.62-1.08,5.46s.35,3.57,1.04,5.04c.7,1.47,1.68,2.65,2.95,3.55,1.27.9,2.77,1.35,4.5,1.35Z"/>
    <path class="cls-1" d="m543.01,790.92h6.98l-1.44,6.77c1.87-2.23,4.04-4.02,6.52-5.35,2.47-1.33,5.05-2,7.74-2s5.09.7,7.06,2.11c1.97,1.4,3.48,3.27,4.54,5.6,1.06,2.33,1.58,4.92,1.58,7.78,0,3-.55,5.89-1.66,8.67s-2.6,5.27-4.5,7.45c-1.9,2.19-4.08,3.91-6.55,5.17-2.47,1.26-5.08,1.89-7.81,1.89s-5.18-.71-7.06-2.14-3.19-3.28-3.96-5.56l-4.75,22.32h-7.92l11.23-52.7Zm11.3,31.32c1.82,0,3.54-.44,5.15-1.31,1.61-.88,3.02-2.04,4.25-3.48,1.22-1.44,2.2-3.07,2.92-4.9.72-1.82,1.08-3.66,1.08-5.5s-.35-3.51-1.04-5c-.7-1.49-1.68-2.68-2.95-3.58-1.27-.9-2.77-1.35-4.5-1.35-.96,0-1.98.19-3.06.57-1.08.38-2.15.9-3.2,1.56-1.06.66-2,1.44-2.84,2.33-.84.9-1.5,1.84-1.98,2.83l-2.16,9.77c.33,1.51.88,2.87,1.62,4.07.74,1.2,1.7,2.17,2.88,2.9,1.17.73,2.46,1.1,3.85,1.1Z"/>
    <path class="cls-1" d="m589.81,775.73h7.92l-4.75,22.75c1.92-2.52,4.21-4.5,6.88-5.96s5.36-2.18,8.1-2.18c2.16,0,3.89.39,5.18,1.18,1.3.79,2.21,1.86,2.74,3.21.53,1.36.79,2.91.79,4.67,0,.95-.06,1.94-.18,2.96-.12,1.02-.3,2.08-.54,3.17l-4.82,22.75h-7.92l4.46-20.85c.19-.81.32-1.55.4-2.24s.11-1.34.11-1.96c0-1.95-.43-3.4-1.3-4.38-.86-.97-2.09-1.46-3.67-1.46-1.3,0-2.7.38-4.21,1.13s-2.95,1.78-4.32,3.08c-1.37,1.3-2.46,2.79-3.28,4.49l-4.82,22.18h-7.92l11.16-52.56Z"/>
    <path class="cls-1" d="m628.04,790.92h7.92l-8.06,37.37h-7.92l8.06-37.37Zm3.1-14.9h7.92l-1.8,8.71h-7.92l1.8-8.71Z"/>
    <path class="cls-1" d="m653.6,829.01c-3.26,0-6.01-.71-8.24-2.14-2.23-1.43-3.92-3.33-5.08-5.71-1.15-2.38-1.73-5.02-1.73-7.92s.58-5.86,1.73-8.59c1.15-2.73,2.76-5.17,4.82-7.31,2.06-2.14,4.5-3.84,7.31-5.1,2.81-1.26,5.87-1.89,9.18-1.89,3.89,0,6.98.85,9.29,2.56,2.3,1.7,3.82,3.97,4.54,6.8l-8.21,2.45c-.53-1.63-1.38-2.88-2.56-3.74-1.18-.86-2.65-1.3-4.43-1.3s-3.4.39-5,1.17c-1.61.78-3.05,1.87-4.32,3.27-1.27,1.4-2.28,3-3.02,4.83-.75,1.82-1.12,3.8-1.12,5.93,0,1.94.33,3.64,1.01,5.11.67,1.47,1.62,2.64,2.84,3.51,1.22.88,2.63,1.31,4.21,1.31,1.2,0,2.41-.23,3.64-.68,1.22-.46,2.34-1.08,3.35-1.87,1.01-.79,1.78-1.67,2.3-2.63l7.27,2.3c-1.15,1.87-2.65,3.53-4.5,4.97-1.85,1.44-3.9,2.58-6.16,3.42-2.26.84-4.63,1.26-7.13,1.26Z"/>
    <path class="cls-1" d="m705.15,777.17h17.35c4.37,0,7.96.88,10.76,2.63,2.81,1.75,4.9,4.12,6.26,7.09,1.37,2.98,2.05,6.31,2.05,10.01,0,4.51-.76,8.68-2.27,12.49-1.51,3.82-3.61,7.14-6.3,9.97-2.69,2.83-5.86,5.03-9.5,6.59-3.65,1.56-7.61,2.34-11.88,2.34h-17.35l10.87-51.12Zm7.99,43.99c3.07,0,5.84-.64,8.32-1.91,2.47-1.27,4.58-2.98,6.34-5.11,1.75-2.13,3.1-4.58,4.03-7.34.94-2.76,1.4-5.65,1.4-8.68,0-2.74-.46-5.14-1.37-7.2-.91-2.06-2.28-3.68-4.1-4.86-1.82-1.18-4.08-1.76-6.77-1.76h-9.22l-7.85,36.86h9.22Z"/>
    <path class="cls-1" d="m759.51,829.01c-3.17,0-5.88-.69-8.14-2.07-2.26-1.38-3.97-3.26-5.15-5.64-1.18-2.38-1.76-5.06-1.76-8.06s.58-6,1.73-8.74,2.78-5.17,4.9-7.31c2.11-2.14,4.57-3.82,7.38-5.03,2.81-1.21,5.87-1.82,9.18-1.82,2.59,0,4.86.39,6.8,1.18,1.94.78,3.46,1.92,4.54,3.42,1.08,1.5,1.62,3.39,1.62,5.67,0,3.8-1.74,6.7-5.22,8.7-3.48,2-8.77,2.99-15.88,2.99-1.34,0-2.86-.04-4.54-.11-1.68-.07-3.58-.2-5.69-.4l1.08-5.11c1.92.1,3.62.19,5.11.29,1.49.1,2.88.14,4.18.14,3.41,0,6.1-.26,8.06-.78,1.97-.52,3.38-1.26,4.25-2.22.86-.97,1.3-2.06,1.3-3.28,0-1.08-.26-1.95-.79-2.61-.53-.66-1.27-1.16-2.23-1.52-.96-.35-2.11-.53-3.46-.53-2.11,0-4.06.46-5.83,1.39-1.78.92-3.3,2.2-4.57,3.84-1.27,1.63-2.26,3.47-2.95,5.51-.7,2.04-1.04,4.19-1.04,6.46,0,1.8.3,3.45.9,4.94.6,1.49,1.54,2.68,2.81,3.55,1.27.88,2.87,1.31,4.79,1.31,2.06,0,4.06-.51,5.98-1.55,1.92-1.03,3.43-2.44,4.54-4.21l6.26,1.94c-1.2,1.87-2.76,3.54-4.68,5-1.92,1.46-4.04,2.6-6.37,3.42-2.33.82-4.69,1.22-7.09,1.22Z"/>
    <path class="cls-1" d="m795.44,829.01c-3.02,0-5.86-.48-8.5-1.44-2.64-.96-4.8-2.38-6.48-4.25l4.25-5.04c1.73,1.58,3.56,2.78,5.51,3.6,1.94.82,3.97,1.22,6.08,1.22,1.63,0,3.06-.24,4.28-.71,1.22-.47,2.17-1.13,2.84-1.98.67-.85,1.01-1.84,1.01-2.97,0-1.47-.62-2.52-1.87-3.14-1.25-.62-3.14-1.29-5.69-2-2.45-.76-4.46-1.47-6.05-2.14s-2.75-1.5-3.49-2.5c-.75-1-1.12-2.33-1.12-4,0-2.62.73-4.92,2.2-6.92,1.46-2,3.44-3.57,5.94-4.71,2.5-1.14,5.3-1.71,8.42-1.71,2.83,0,5.32.43,7.45,1.3,2.14.86,3.95,2.11,5.44,3.74l-4.39,4.75c-1.34-1.39-2.75-2.4-4.21-3.02-1.46-.62-3.11-.94-4.93-.94-1.58,0-2.99.21-4.21.64-1.22.42-2.18,1.06-2.88,1.92-.7.85-1.04,1.89-1.04,3.12s.48,2.2,1.44,2.77c.96.57,2.66,1.18,5.11,1.85,2.59.71,4.78,1.47,6.55,2.28,1.78.81,3.11,1.78,4,2.92.89,1.14,1.33,2.64,1.33,4.5,0,2.42-.7,4.61-2.09,6.56-1.39,1.95-3.36,3.48-5.9,4.6-2.54,1.12-5.54,1.68-9,1.68Z"/>
    <path class="cls-1" d="m824.67,790.92h7.92l-8.06,37.37h-7.92l8.06-37.37Zm3.1-14.9h7.92l-1.8,8.71h-7.92l1.8-8.71Z"/>
    <path class="cls-1" d="m845.55,844.34c-3.99,0-7.14-.72-9.47-2.16-2.33-1.44-4.14-3.41-5.44-5.9l5.33-4.18c.96,2.02,2.4,3.55,4.32,4.61,1.92,1.06,4.08,1.58,6.48,1.58,2.02,0,3.96-.39,5.83-1.18,1.87-.78,3.52-2,4.93-3.63,1.42-1.64,2.39-3.69,2.92-6.17l1.15-5.72c-1.68,2.32-3.77,4.14-6.26,5.45-2.5,1.31-4.97,1.96-7.42,1.96-2.69,0-4.99-.7-6.91-2.09-1.92-1.39-3.37-3.24-4.36-5.54-.98-2.3-1.48-4.82-1.48-7.56,0-3.12.56-6.08,1.69-8.89,1.13-2.81,2.68-5.3,4.64-7.49,1.97-2.18,4.25-3.91,6.84-5.18,2.59-1.27,5.3-1.91,8.14-1.91s5.23.72,7.06,2.15c1.82,1.43,3.19,3.29,4.1,5.58l1.51-7.15h6.98l-7.78,36.4c-.77,3.62-2.27,6.7-4.5,9.23-2.23,2.53-4.93,4.46-8.1,5.79-3.17,1.33-6.58,2-10.22,2Zm6.34-21.74c1.1,0,2.21-.21,3.31-.62,1.1-.42,2.16-.98,3.17-1.69s1.92-1.52,2.74-2.43c.82-.91,1.46-1.88,1.94-2.91l2.16-9.8c-.24-1.61-.77-3.02-1.58-4.23-.82-1.21-1.81-2.15-2.99-2.81-1.18-.66-2.46-1-3.85-1-1.87,0-3.6.46-5.18,1.37s-3,2.12-4.25,3.64c-1.25,1.51-2.22,3.17-2.92,4.97-.7,1.8-1.04,3.61-1.04,5.44s.36,3.56,1.08,5.08c.72,1.51,1.72,2.73,2.99,3.64,1.27.91,2.75,1.37,4.43,1.37Z"/>
    <path class="cls-1" d="m885.44,790.92h7.13l-1.58,7.55c1.25-1.66,2.74-3.1,4.46-4.31,1.73-1.21,3.6-2.15,5.62-2.82,2.02-.67,4.05-1,6.12-1s3.77.38,4.97,1.14c1.2.76,2.06,1.79,2.59,3.1.53,1.31.79,2.79.79,4.46,0,1-.08,2.04-.25,3.14-.17,1.09-.37,2.21-.61,3.35l-4.82,22.75h-7.92l4.46-20.85c.19-.9.34-1.72.43-2.46.1-.74.14-1.44.14-2.1,0-1.9-.4-3.29-1.19-4.16-.79-.88-1.93-1.32-3.42-1.32-1.39,0-2.87.38-4.43,1.13s-3.04,1.78-4.43,3.08c-1.39,1.3-2.52,2.79-3.38,4.49l-4.82,22.18h-7.92l8.06-37.37Z"/>
    <path class="cls-1" d="m935.19,829.01c-3.17,0-5.88-.69-8.14-2.07-2.26-1.38-3.97-3.26-5.15-5.64-1.18-2.38-1.76-5.06-1.76-8.06s.58-6,1.73-8.74,2.78-5.17,4.9-7.31c2.11-2.14,4.57-3.82,7.38-5.03,2.81-1.21,5.87-1.82,9.18-1.82,2.59,0,4.86.39,6.8,1.18,1.94.78,3.46,1.92,4.54,3.42,1.08,1.5,1.62,3.39,1.62,5.67,0,3.8-1.74,6.7-5.22,8.7-3.48,2-8.77,2.99-15.88,2.99-1.34,0-2.86-.04-4.54-.11-1.68-.07-3.58-.2-5.69-.4l1.08-5.11c1.92.1,3.62.19,5.11.29,1.49.1,2.88.14,4.18.14,3.41,0,6.1-.26,8.06-.78,1.97-.52,3.38-1.26,4.25-2.22.86-.97,1.3-2.06,1.3-3.28,0-1.08-.26-1.95-.79-2.61-.53-.66-1.27-1.16-2.23-1.52-.96-.35-2.11-.53-3.46-.53-2.11,0-4.06.46-5.83,1.39-1.78.92-3.3,2.2-4.57,3.84-1.27,1.63-2.26,3.47-2.95,5.51-.7,2.04-1.04,4.19-1.04,6.46,0,1.8.3,3.45.9,4.94.6,1.49,1.54,2.68,2.81,3.55,1.27.88,2.87,1.31,4.79,1.31,2.06,0,4.06-.51,5.98-1.55,1.92-1.03,3.43-2.44,4.54-4.21l6.26,1.94c-1.2,1.87-2.76,3.54-4.68,5-1.92,1.46-4.04,2.6-6.37,3.42-2.33.82-4.69,1.22-7.09,1.22Z"/>
    <path class="cls-1" d="m966,790.92h7.34l-1.87,8.36c1.82-2.57,3.89-4.64,6.19-6.22,2.3-1.57,4.58-2.36,6.84-2.36.48,0,.86.01,1.15.04.29.02.53.06.72.11l-1.51,6.91c-2.83.05-5.52.73-8.06,2.06-2.54,1.33-4.56,3.19-6.05,5.61l-4.9,22.86h-7.92l8.06-37.37Z"/>
  </g>
  <g>
    <path class="cls-1" d="m117.65,129.82l-10.94-32.69h8.86l7.63,25.63,18.72-25.63h8.78l-24.98,32.83-3.89,18.29h-8.14l3.96-18.43Z"/>
    <path class="cls-1" d="m153.72,148.97c-2.78,0-5.18-.69-7.2-2.07-2.02-1.38-3.55-3.23-4.61-5.56-1.06-2.33-1.58-4.92-1.58-7.78,0-3.04.55-5.96,1.66-8.74,1.1-2.78,2.63-5.25,4.57-7.42,1.94-2.16,4.16-3.89,6.66-5.17,2.5-1.28,5.11-1.93,7.85-1.93s5.04.74,6.91,2.21,3.17,3.31,3.89,5.49l1.51-7.13h7.99l-6.05,27.7c-.05.24-.08.44-.11.6-.02.17-.04.32-.04.46,0,.94.55,1.44,1.66,1.48l-1.44,6.77c-.67.1-1.27.18-1.8.25-.53.07-1.01.11-1.44.11-1.49,0-2.64-.3-3.46-.91-.82-.61-1.22-1.48-1.22-2.61,0-.22.01-.5.04-.81.02-.32.07-.68.14-1.08.07-.41.18-.86.32-1.35-1.87,2.38-4.09,4.22-6.66,5.53-2.57,1.31-5.1,1.96-7.6,1.96Zm3.46-6.77c.96,0,1.98-.19,3.06-.57,1.08-.38,2.14-.9,3.17-1.56,1.03-.66,1.98-1.44,2.84-2.33.86-.9,1.56-1.86,2.09-2.9l2.02-9.77c-.19-1.51-.7-2.87-1.51-4.07-.82-1.2-1.81-2.16-2.99-2.87-1.18-.71-2.44-1.06-3.78-1.06-1.82,0-3.54.44-5.15,1.31-1.61.88-3.02,2.05-4.25,3.51-1.22,1.47-2.2,3.1-2.92,4.9-.72,1.8-1.08,3.62-1.08,5.46s.35,3.57,1.04,5.04c.7,1.47,1.68,2.65,2.95,3.55,1.27.9,2.77,1.35,4.5,1.35Z"/>
    <path class="cls-1" d="m191.31,110.88h7.13l-1.58,7.55c1.25-1.66,2.74-3.1,4.46-4.31,1.73-1.21,3.6-2.15,5.62-2.82s4.06-1,6.12-1,3.77.38,4.97,1.14c1.2.76,2.06,1.79,2.59,3.1.53,1.31.79,2.79.79,4.46,0,1-.08,2.04-.25,3.14-.17,1.09-.37,2.21-.61,3.35l-4.82,22.75h-7.92l4.46-20.85c.19-.9.33-1.72.43-2.46.1-.74.14-1.44.14-2.1,0-1.9-.4-3.29-1.19-4.16-.79-.88-1.93-1.32-3.42-1.32-1.39,0-2.87.38-4.43,1.13-1.56.75-3.04,1.78-4.43,3.08-1.39,1.3-2.52,2.79-3.38,4.49l-4.82,22.18h-7.92l8.06-37.37Z"/>
    <path class="cls-1" d="m232.63,110.88h7.13l-1.58,7.55c1.25-1.66,2.74-3.1,4.46-4.31,1.73-1.21,3.6-2.15,5.62-2.82s4.06-1,6.12-1,3.77.38,4.97,1.14c1.2.76,2.06,1.79,2.59,3.1.53,1.31.79,2.79.79,4.46,0,1-.08,2.04-.25,3.14-.17,1.09-.37,2.21-.61,3.35l-4.82,22.75h-7.92l4.46-20.85c.19-.9.33-1.72.43-2.46.1-.74.14-1.44.14-2.1,0-1.9-.4-3.29-1.19-4.16-.79-.88-1.93-1.32-3.42-1.32-1.39,0-2.87.38-4.43,1.13-1.56.75-3.04,1.78-4.43,3.08-1.39,1.3-2.52,2.79-3.38,4.49l-4.82,22.18h-7.92l8.06-37.37Z"/>
    <path class="cls-1" d="m295.27,97.13h17.35c4.37,0,7.96.88,10.76,2.63,2.81,1.75,4.9,4.12,6.26,7.09,1.37,2.98,2.05,6.31,2.05,10.01,0,4.51-.76,8.68-2.27,12.49-1.51,3.82-3.61,7.14-6.3,9.97-2.69,2.83-5.86,5.03-9.5,6.59-3.65,1.56-7.61,2.34-11.88,2.34h-17.35l10.87-51.12Zm7.99,43.99c3.07,0,5.84-.64,8.32-1.91,2.47-1.27,4.58-2.98,6.34-5.11,1.75-2.13,3.1-4.58,4.03-7.34.94-2.76,1.4-5.65,1.4-8.68,0-2.74-.46-5.14-1.37-7.2-.91-2.06-2.28-3.68-4.1-4.86-1.82-1.18-4.08-1.76-6.77-1.76h-9.22l-7.85,36.86h9.22Z"/>
    <path class="cls-1" d="m343.94,148.97c-5.86,0-8.78-3.1-8.78-9.29,0-.86.06-1.77.18-2.75.12-.98.3-2.04.54-3.18l4.97-22.87h7.85l-4.61,21.26c-.34,1.62-.5,3.04-.5,4.28,0,3.85,1.66,5.78,4.97,5.78,1.39,0,2.8-.31,4.21-.92,1.42-.62,2.81-1.53,4.18-2.73,1.37-1.21,2.58-2.66,3.64-4.37l4.97-23.3h7.92l-5.98,28.03c-.05.24-.1.44-.14.61-.05.17-.07.32-.07.46,0,.95.55,1.45,1.66,1.5l-1.37,6.77c-.72.1-1.34.18-1.87.25-.53.07-1.01.11-1.44.11-1.44,0-2.57-.31-3.38-.93-.82-.62-1.22-1.5-1.22-2.64,0-.24.02-.54.07-.89.05-.36.12-.81.22-1.36.1-.55.22-1.25.36-2.11-2.16,2.72-4.66,4.78-7.49,6.18-2.83,1.41-5.78,2.11-8.86,2.11Z"/>
    <path class="cls-1" d="m383.4,110.88h7.34l-1.87,8.36c1.82-2.57,3.89-4.64,6.19-6.22,2.3-1.57,4.58-2.36,6.84-2.36.48,0,.86.01,1.15.04.29.02.53.06.72.11l-1.51,6.91c-2.83.05-5.52.73-8.06,2.06-2.54,1.33-4.56,3.19-6.05,5.61l-4.9,22.86h-7.92l8.06-37.37Z"/>
    <path class="cls-1" d="m416.01,148.97c-2.78,0-5.18-.69-7.2-2.07-2.02-1.38-3.55-3.23-4.61-5.56-1.06-2.33-1.58-4.92-1.58-7.78,0-3.04.55-5.96,1.66-8.74,1.1-2.78,2.63-5.25,4.57-7.42,1.94-2.16,4.16-3.89,6.66-5.17,2.5-1.28,5.11-1.93,7.85-1.93s5.04.74,6.91,2.21,3.17,3.31,3.89,5.49l1.51-7.13h7.99l-6.05,27.7c-.05.24-.08.44-.11.6-.02.17-.04.32-.04.46,0,.94.55,1.44,1.66,1.48l-1.44,6.77c-.67.1-1.27.18-1.8.25-.53.07-1.01.11-1.44.11-1.49,0-2.64-.3-3.46-.91-.82-.61-1.22-1.48-1.22-2.61,0-.22.01-.5.04-.81.02-.32.07-.68.14-1.08.07-.41.18-.86.32-1.35-1.87,2.38-4.09,4.22-6.66,5.53-2.57,1.31-5.1,1.96-7.6,1.96Zm3.46-6.77c.96,0,1.98-.19,3.06-.57,1.08-.38,2.13-.9,3.17-1.56,1.03-.66,1.98-1.44,2.84-2.33s1.56-1.86,2.09-2.9l2.02-9.77c-.19-1.51-.7-2.87-1.51-4.07-.82-1.2-1.81-2.16-2.99-2.87-1.18-.71-2.44-1.06-3.78-1.06-1.83,0-3.54.44-5.15,1.31-1.61.88-3.02,2.05-4.25,3.51-1.22,1.47-2.2,3.1-2.92,4.9s-1.08,3.62-1.08,5.46.35,3.57,1.04,5.04c.7,1.47,1.68,2.65,2.95,3.55,1.27.9,2.77,1.35,4.5,1.35Z"/>
    <path class="cls-1" d="m453.6,110.88h7.13l-1.58,7.55c1.25-1.66,2.74-3.1,4.46-4.31,1.73-1.21,3.6-2.15,5.62-2.82,2.02-.67,4.05-1,6.12-1s3.77.38,4.97,1.14c1.2.76,2.06,1.79,2.59,3.1.53,1.31.79,2.79.79,4.46,0,1-.08,2.04-.25,3.14-.17,1.09-.37,2.21-.61,3.35l-4.82,22.75h-7.92l4.46-20.85c.19-.9.34-1.72.43-2.46.1-.74.14-1.44.14-2.1,0-1.9-.4-3.29-1.19-4.16-.79-.88-1.93-1.32-3.42-1.32-1.39,0-2.87.38-4.43,1.13s-3.04,1.78-4.43,3.08c-1.39,1.3-2.52,2.79-3.38,4.49l-4.82,22.18h-7.92l8.06-37.37Z"/>
    <path class="cls-1" d="m501.62,148.97c-2.78,0-5.18-.69-7.2-2.07-2.02-1.38-3.55-3.23-4.61-5.56-1.06-2.33-1.58-4.92-1.58-7.78,0-3.04.55-5.96,1.66-8.74,1.1-2.78,2.63-5.25,4.57-7.42,1.94-2.16,4.16-3.89,6.66-5.17,2.5-1.28,5.11-1.93,7.85-1.93s5.04.74,6.91,2.21,3.17,3.31,3.89,5.49l4.68-22.32h7.99l-9.22,43.2c-.05.24-.08.44-.11.61-.02.17-.04.32-.04.47,0,.96.55,1.46,1.66,1.51l-1.44,6.77c-.67.1-1.27.18-1.8.25-.53.07-1.01.11-1.44.11-1.49,0-2.65-.32-3.49-.96-.84-.64-1.26-1.53-1.26-2.67,0-.24.02-.51.07-.82.05-.31.11-.69.18-1.14.07-.45.18-.96.32-1.53-1.87,2.38-4.09,4.22-6.66,5.53-2.57,1.31-5.1,1.96-7.6,1.96Zm3.46-6.77c.96,0,1.98-.19,3.06-.57,1.08-.38,2.13-.9,3.17-1.56,1.03-.66,1.98-1.44,2.84-2.33s1.56-1.86,2.09-2.9l2.02-9.77c-.19-1.51-.7-2.87-1.51-4.07-.82-1.2-1.81-2.16-2.99-2.87-1.18-.71-2.44-1.06-3.78-1.06-1.83,0-3.54.44-5.15,1.31-1.61.88-3.02,2.05-4.25,3.51-1.22,1.47-2.2,3.1-2.92,4.9s-1.08,3.62-1.08,5.46.35,3.57,1.04,5.04c.7,1.47,1.68,2.65,2.95,3.55,1.27.9,2.77,1.35,4.5,1.35Z"/>
    <path class="cls-1" d="m547.49,148.97c-3.17,0-5.88-.69-8.14-2.07-2.26-1.38-3.97-3.26-5.15-5.64-1.18-2.38-1.76-5.06-1.76-8.06s.58-6,1.73-8.74,2.78-5.17,4.9-7.31c2.11-2.14,4.57-3.82,7.38-5.03,2.81-1.21,5.87-1.82,9.18-1.82,2.59,0,4.86.39,6.8,1.18,1.94.78,3.46,1.92,4.54,3.42,1.08,1.5,1.62,3.39,1.62,5.67,0,3.8-1.74,6.7-5.22,8.7-3.48,2-8.77,2.99-15.88,2.99-1.34,0-2.86-.04-4.54-.11-1.68-.07-3.58-.2-5.69-.4l1.08-5.11c1.92.1,3.62.19,5.11.29,1.49.1,2.88.14,4.18.14,3.41,0,6.1-.26,8.06-.78,1.97-.52,3.38-1.26,4.25-2.22.86-.97,1.3-2.06,1.3-3.28,0-1.08-.26-1.95-.79-2.61-.53-.66-1.27-1.16-2.23-1.52-.96-.35-2.11-.53-3.46-.53-2.11,0-4.06.46-5.83,1.39-1.78.92-3.3,2.2-4.57,3.84-1.27,1.63-2.26,3.47-2.95,5.51-.7,2.04-1.04,4.19-1.04,6.46,0,1.8.3,3.45.9,4.94.6,1.49,1.54,2.68,2.81,3.55,1.27.88,2.87,1.31,4.79,1.31,2.06,0,4.06-.51,5.98-1.55,1.92-1.03,3.43-2.44,4.54-4.21l6.26,1.94c-1.2,1.87-2.76,3.54-4.68,5-1.92,1.46-4.04,2.6-6.37,3.42-2.33.82-4.69,1.22-7.09,1.22Z"/>
    <path class="cls-1" d="m573.33,142.8c0-.38.02-.76.07-1.15.05-.38.12-.79.22-1.22l5.04-23.44h-4.82l1.37-6.12h4.68l2.66-12.38h7.92l-2.66,12.38h7.78l-1.3,6.12h-7.7l-4.46,20.9c-.05.19-.08.37-.11.54s-.04.35-.04.54c0,.96.28,1.65.83,2.08s1.26.64,2.12.64c.72,0,1.43-.1,2.12-.29.7-.19,1.33-.4,1.91-.61s1.06-.42,1.44-.61l.29,6.26c-.72.43-1.62.85-2.7,1.26-1.08.41-2.24.72-3.49.94-1.25.22-2.54.32-3.89.32-2.06,0-3.79-.49-5.18-1.47-1.39-.98-2.09-2.54-2.09-4.7Z"/>
  </g>
  <polygon class="cls-2" points="133.42 636.57 217.42 636.57 84.21 419.36 217.92 202.07 132.92 202.07 43.92 348.07 0 419.32 133.42 636.57"/>
  <polygon class="cls-1" points="877.99 636.53 793.99 636.53 927.19 419.33 793.49 202.03 878.49 202.03 967.49 348.03 1011.41 419.28 877.99 636.53"/>
  <polygon class="cls-3" points="204.01 839.07 120.01 839.07 253.22 621.86 337.4 621.86 204.01 839.07"/>
  <path class="cls-3" d="m697.56,206.33c-3.1-1.24-7.3-2.87-12.33-4.69-4.72-1.7-8.11-2.93-12.77-4.34-7.78-2.36-14.03-3.72-17.11-4.34-6.18-1.26-11.18-1.94-14.04-2.3-6.39-.79-12.23-1.16-17.37-1.3,38.71-63.12,77.42-126.25,116.13-189.37h84.19c-42.24,68.78-84.47,137.55-126.71,206.33Z"/>
</svg>